<?xml version="1.0" encoding="utf-8"?>
<!-- Generator: Adobe Illustrator 20.1.0, SVG Export Plug-In . SVG Version: 6.00 Build 0)  -->
<svg version="1.1" id="Layer_1" xmlns="http://www.w3.org/2000/svg" xmlns:xlink="http://www.w3.org/1999/xlink" x="0px" y="0px"
	 viewBox="0 0 1029 229" style="enable-background:new 0 0 1029 229;" xml:space="preserve">
<style type="text/css">
	.st0{fill:#7C4EC4;}
	.st1{fill:#010101;}
	.st2{fill:#7C4EC4;stroke:#5E3883;stroke-width:1.35;}
	.st3{fill:#F5EAD7;}
	.st4{fill:#CDCFD0;stroke:#7B7C7C;stroke-width:1.35;}
	.st5{fill:#FFFFFF;}
	.st6{fill:#231F20;}
	.st7{fill:#F5EAD7;stroke:#938C81;stroke-width:1.35;}
	.st8{opacity:0.4;fill:#7C4EC4;enable-background:new    ;}
</style>
<g>
	<g>
		<path class="st0" d="M906.1,137l-8.9-0.4c0,0-2.4-14.3-1.4-18.8l42.2,0.4c0,0,1,16.1,0.7,18.5l-7.5,0.3l7.5,17.2l16.9-29.9
			l12.8,0.4l18.8,29.8l6.8-17.1l-8-0.4l0.1-18.8c0.7-0.7,41.9-0.3,41.8-0.3c0,0,1.1,9.7,1,18.8l-8.5,0.6c0,0-14,40-22.6,52.8
			c0,0-11.4,1-17.4-0.4l-19.2-30.8l-17.1,31.2c0,0-12.8,1-18.8-0.4C925.4,189.7,908.2,148.6,906.1,137L906.1,137z M860.5,116.8
			c20,0,34.6,13.4,34.6,37.1c0,19.5-10.4,38.1-34.4,38.1c-21.5,0-36.7-11.2-36.7-38.4C823.9,126.6,840.4,116.8,860.5,116.8
			L860.5,116.8z M861,167.9c5.5,0,9.7-4.2,9.7-13.3c0-7.2-2.8-14.5-9.7-14.5c-8.6,0-11.4,7.1-11.4,14.5
			C849.6,163.1,855.8,167.9,861,167.9z M779.7,91c10.7,0,16.7,5.9,16.7,5.9l1.6-8.3c0,0.3,16.1,0.6,22.2,4.4
			c1,0.7-0.7,35.2-0.7,35.2l-22.7,2.8c0,0-2.8-14.5-15.5-14.5c-7.3,0-13.6,7.8-13.6,23.4c0,16.7,10,22.4,17.1,22.4
			c9,0,15.8-7.6,17.2-9.6c6.4,6.6,18.5,17.5,18.5,17.5s-8.9,20.9-35.7,20.9c-22,0-46-17.1-46-51.2C738.6,104.1,759.9,91,779.7,91
			L779.7,91z"/>
		<path class="st1" d="M668.1,180.6c0,0-19.8-32.5-21.9-44l-7.8-0.4c0,0-2.4-13.8-1.4-18.4l42.2-0.1c0,0,1,16.2,0.7,18.6l-7.9,0.3
			l10.7,19.9L693,137l-7.1-0.4l-0.3-18.4c0.7-0.7,40.7,0.6,40.5,0.6c0,0,1.1,9,1,18.1l-7.8,0.4c0,0-38.3,75.4-46.9,88.2
			c0,0-19.8-4-24.4-12C647.2,213.4,668.7,180.8,668.1,180.6L668.1,180.6z M472.7,201.5l-0.1-58.9h-10.4c-0.1-9-1-20.9-1-20.9
			c-0.1,0,31.2-5.1,31.9-4.4c0.3,0.8,3,6.2,3,6.2s4.1-6.2,18.5-6.2c13,0,32.3,8.5,32.3,37.6c0,29.4-17.1,36.1-31.5,36.1
			c-12,0-16.4-4.5-16.4-4.5v14c0,0,13.7,1.6,14.3,2c0.8,0.7,0.4,19.1,0.6,19.1c0.3,0-51.2,0.3-51,0l-0.8-19.2L472.7,201.5
			L472.7,201.5z M511.6,169.2c6.8,0,9.9-5.4,9.9-14.8c0-9.3-3.8-14.3-9.3-14.3c-6.1,0-9.9,5.2-9.9,14.1
			C502.2,162.7,506.1,169.2,511.6,169.2z M562.5,201.5l-0.1-58.9h-10.4c-0.1-9-1-20.9-1-20.9c-0.1,0,31.2-5.1,31.9-4.4
			c0.3,0.8,3,6.2,3,6.2s4.1-6.2,18.5-6.2c13,0,32.3,8.5,32.3,37.6c0,29.4-17.1,36.1-31.5,36.1c-12,0-16.4-4.5-16.4-4.5v14
			c0,0,13.7,1.6,14.3,2c0.8,0.7,0.4,19.1,0.6,19.1c0.3,0-51.2,0.3-51,0l-0.8-19.2L562.5,201.5z M601.4,169.2c6.8,0,9.9-5.4,9.9-14.8
			c0-9.3-3.8-14.3-9.3-14.3c-6.1,0-9.9,5.2-9.9,14.1C592,162.7,595.8,169.2,601.4,169.2L601.4,169.2z M371.9,152.8
			c0-26.8,17.2-34.7,31.6-34.7c12,0,20.9,7.1,20.9,7.1v-7.1c0,0,29.9-1,29.9-0.3c0,0.7,1,18.8,0.8,18.8c-0.3,0-10.2,2.1-10.4,2.4
			c-0.4,0.3,0.3,29.8,0.3,29.8c0.1,0,11.7-0.1,11.9,0.8c0.3,1,0.3,19.8-0.3,19.8c-0.4,0-32-0.6-32-1s-1.4-7.2-1.4-7.2
			s-5.6,9.3-20,9.3C390.1,190.5,371.9,181.9,371.9,152.8z M419.1,153.5c0-7.5-4.7-13.7-10.4-13.7c-7.1,0-11.7,4.9-11.7,13.4
			c0,8.2,5.5,13.4,11.2,13.4C414.4,166.7,419.1,161.4,419.1,153.5L419.1,153.5z M272.2,171c0.6-0.6,10.2-1.4,10.2-1.4l-2-58.3
			c0,0-8.2,0.3-8.9-0.4c-0.7-0.7,0.6-20.6,0.6-20.6l40.8,0.7l1,20l-9.9,1l0.7,15.5l27.2,1.3l-0.3-17.4c0,0-8.2-0.8-8.3-0.8
			s-1.4-19.3-1.4-19.3l46.4,0.4c0,0-0.4,19.3-0.7,19.3s-10.4,1.7-10.4,1.7l1.8,55.8l9.7,1.1v20.2c0,0-43.8,0.6-43.8,0.3
			c0-0.3-0.4-20.6-0.4-20.6l9.9-1l-0.4-18.6l-28.7-0.8c0,0-0.3,20.6,0.4,20.6c0.7,0,9.5-0.6,9.5,0.4s2,18.6,1.3,18.9
			c-0.7,0.3-44-0.7-44-0.7S271.7,171.6,272.2,171L272.2,171z"/>
	</g>
	<g>
		<path class="st2" d="M60.1,88.3c-1,3-18,4.1-20.1,4.3c-10.2,0.9-26.5,2.5-34.4-5.8c-7.3-7.6-4.4-20.7,2.9-27.3
			c7.6-6.9,17.6-6.6,26.6-4.9c5.2,1,10.3,2.5,15.3,4.3c1.6,0.6,17.4,6.9,16.9,8.5C67.2,67.4,60.1,88.3,60.1,88.3"/>
		<path class="st3" d="M36.5,84.1c-5.9,0.6-15.3,1.7-19.8-3.1c-4.1-4.4-2.4-12.2,1.8-16.2c4.5-4.2,8.9-3.8,14-2.9
			c3,0.5,9.2,2.2,11.8,5.2C47,70.1,54.6,81.3,36.5,84.1z"/>
		<path class="st2" d="M192.8,109.9c0.1,2.8,15.9,8.6,17.9,9.4c9.5,3.7,24.6,9.6,34.5,4.9c9.2-4.4,10.3-16.4,5.4-24.1
			c-5.2-8.1-14.9-10.6-23.9-11.8c-5.2-0.7-10.6-0.8-15.8-0.6c-1.7,0.1-18.6,0.9-18.6,2.4L192.8,109.9"/>
		<path class="st3" d="M216.6,113c5.5,2.2,14.1,5.8,19.8,3c5.3-2.6,5.9-9.7,3-14.3c-3-4.8-7.3-5.8-12.5-6.5c-3-0.4-9.4-0.7-12.8,1.1
			S200.1,105.6,216.6,113z"/>
		<path class="st4" d="M94.2,50.9c0.3-0.2-10.5-17.3-5-30.6c2.5-5.5,11-10.1,10.3-15.2c-1.5-6.6-15.2-2.8-18.9-1.3
			c-20.6,8.3-32.8,41.2-18.7,70.5C61.8,74.4,94.2,50.9,94.2,50.9"/>
		<path class="st5" d="M87.1,47.6c-10-28.8,5.4-39,5.4-39C71,15.9,80.8,49.9,80.8,49.9S87.1,47.6,87.1,47.6z"/>
		<path class="st4" d="M193.7,40.9c0.4-6.1-4.9-14.1-2-18.2c4.5-5.2,14.7,4.7,17.3,7.8c14.3,17,9.5,51.8-16.8,70.9
			c0,0-17.5-35.9-17.5-35.9C174.6,65.1,192.2,55.2,193.7,40.9L193.7,40.9z"/>
		<path class="st5" d="M182.6,65.9c22.5-20.7,13.6-36.9,13.6-36.9c15.5,16.6-9.1,41.9-9.1,41.9S182.6,65.9,182.6,65.9z"/>
		<path class="st2" d="M49.5,113.2c0,0-7.2-75.5,60.6-69.6l55,10.5c0,0,46,12.4,32.2,79.7c0,0-68.6,39.6-147.7-21.3"/>
		<path class="st5" d="M71.2,108.6c0,0,0.1-38.4,20.8-35c27.9,4.5,11.8,50.2,11.8,50.2L71.2,108.6z"/>
		<path class="st6" d="M91.6,121.7c-7.8,0.1-14.2-8.9-14.4-20.2c-0.2-11.3,6-20.5,13.8-20.7c7.8-0.1,14.2,8.9,14.4,20.2
			C105.5,112.3,99.3,121.5,91.6,121.7z"/>
		<path class="st5" d="M96.1,95c0,2.4-1.9,4.3-4.3,4.3c-2.4,0-4.3-1.9-4.3-4.3c0-2.4,1.9-4.3,4.3-4.3C94.2,90.7,96.1,92.7,96.1,95"
			/>
		<path class="st5" d="M176.5,124.3c0,0,13.4-32.6-7-37.5c-29.7-7-30.9,43.7-30.9,43.7S176.5,124.3,176.5,124.3z"/>
		<path class="st6" d="M152.7,131.7c7.2,2.9,16.4-3.3,20.6-13.8c4.2-10.5,1.7-21.3-5.6-24.2c-7.2-2.9-16.4,3.3-20.6,13.8
			C143,118,145.5,128.8,152.7,131.7L152.7,131.7z"/>
		<path class="st5" d="M166.5,105.8c0.1,2.4-1.8,4.4-4.2,4.4c-2.4,0.1-4.4-1.8-4.4-4.2c-0.1-2.4,1.8-4.4,4.2-4.4
			C164.5,101.6,166.5,103.4,166.5,105.8"/>
		<path class="st7" d="M102.8,226.1c123.7,15.9,123.1-88.2,87-101.1c-20.6-7.4-40.1,9.6-69.7,3.7C91.1,122.9,80.2,102,53.6,107
			C10,115.3,10,214.1,102.8,226.1z"/>
		<path class="st0" d="M161.8,157.3c-6,2.9-11.7,1.6-12.7-2.9c-1-4.5,3-10.4,9-13.3c6-2.9,11.7-1.6,12.7,2.9
			C171.8,148.5,167.8,154.4,161.8,157.3"/>
		<path class="st8" d="M176.9,140.4c0,0,3.7,9.7-18,17.9c0,0-4.6-1.2-8.9-6C148.7,143.8,169.1,129.1,176.9,140.4L176.9,140.4z"/>
		<path class="st0" d="M91.2,136.2c3.2,5.8,2.3,11.6-2.1,12.9c-4.4,1.3-10.6-2.3-13.8-8.1c-3.2-5.8-2.3-11.6,2.1-12.9
			C81.7,126.8,87.9,130.4,91.2,136.2"/>
		<path class="st8" d="M76.9,143.7c-5.4-5.6-11.8-12.7-7.4-18.4c0,0,12.1-10.7,23.2,15.9"/>
		<path class="st8" d="M187.1,182.3c-7.9,7.9-18.3,10.4-23.2,5.5c-4.9-4.9-2.4-15.3,5.5-23.2c7.9-7.9,18.3-10.4,23.2-5.5
			C197.5,164,195.1,174.4,187.1,182.3"/>
		<path class="st2" d="M130.2,56.2c0,0-18.3,2.2-19.6,16c0,0-8.4-14.8,7.7-18.8c0,0-11.9-5.6-21.6,0.3c0,0,6.3-12,22.6-8.9
			c-2-8-12.3-11.3-12.3-11.3s11.7-2.8,22.3,8.3c0,0,0.2-4.3,4.4-7.5c0,0,4,3.3,4,8.7c0,0,13.2-7.7,24.3,3.5c0,0-12.6-3.6-16.4,1
			c0,0,18.9,1.3,22.4,15.3c0,0-16.8-11.8-24.7-8.2c12.5,4.6,9.3,17.5,9.3,17.5S147.4,58.2,130.2,56.2L130.2,56.2z"/>
		<path class="st6" d="M74.3,179.8l2.4-1.5c0,0,8.9,20.1,32.9,23.5c25.7,3.6,44.3-11.1,44.3-11.1l1.8,2c0,0-19.4,16.3-46.3,12
			C82.4,200.4,74.3,179.8,74.3,179.8z M158.2,195.3l-0.2,0c-5.3-1.2-7-6.1-7.1-6.3c-0.3-0.7,0.1-1.5,0.9-1.7
			c0.7-0.2,1.5,0.2,1.8,0.9c0.1,0.2,1.4,3.7,5,4.5c0.7,0.2,1.2,0.9,1.1,1.6C159.5,194.9,158.9,195.3,158.2,195.3"/>
		<path class="st8" d="M46.6,163.6c6.5,9.1,17.3,13,22.9,9c5.6-4,5.6-16.2-0.9-25.3c-6.5-9.1-17.1-11.8-22.8-7.7
			C40.2,143.6,40.1,154.5,46.6,163.6"/>
		<path class="st6" d="M71.4,181.7l0.2,0c5.4,0,8-4.4,8.1-4.6c0.4-0.6,0.1-1.5-0.5-1.9c-0.7-0.4-1.5-0.2-1.9,0.5
			c-0.1,0.2-2,3.3-5.8,3.2c-0.8,0-1.4,0.6-1.3,1.4C70.1,181,70.7,181.6,71.4,181.7"/>
	</g>
</g>
</svg>
